<?xml version="1.0" encoding="UTF-8" standalone="no"?>
<svg
   width="22mm"
   height="44mm"
   viewBox="0 0 22 44"
   version="1.1"
   xmlns="http://www.w3.org/2000/svg"
   >
   <g style="display:inline;fill:none;stroke:#000000;stroke-width:1">
      <path d="m 8.8,14.7 -0.1,-10.6 3.2,-2.4 3.3,2.2 -0.2,10.9 z" />
      <path d="m 14.1,3.4 -5.1,3.3" />
      <path d="m 15.2,5.7 -6.2,3.9" />
      <path d="m 14.9,8.8 -5.9,3.9" />
      <path d="m 15.1,11.6 -4.9,3.3" />
      <path d="m 7.6,18.7 c 0,0 2.0,2.4 2.1,3.9 0,2.6 -2.5,3.8 -2.6,6.7 -0.1,3.6 3.5,6.3 4.4,7.5 0.8,1.0 1.1,3.9 0.7,4.9 -0.7,0.94 2.2,-2.3 2.3,-4.8 0.1,-2.8 -2.0,-3.5 -1.9,-5.7 0.1,-2.6 2.8,-5.2 3.5,-7.4 0.7,-2.3 -0.3,-4.4 -0.6,-4.5 -0.4,-0.1 -1.8,-0.2 -1.8,-0.2" />
      <path d="m 11.9,19.2 c 1.0,1.3 2.0,2.9 1.1,4.7 -0.9,1.7 -2.7,3.1 -2.9,6.0 -0.2,3.0 2.7,5.3 2.9,6.5 0.3,1.9 0.2,2.3 -0.3,3.9 -0.4,1.6 -0.3,-0.05 -0.3,-0.05" />
      <path
        style="stroke-linejoin:round"
        d="m 8.5,14.6 -4.9,1.0 -0.8,5.5 2.6,-2.6 1.8,0.05 8.8,0.3 1.9,0.1 2.9,2.4 -0.8,-5.5 -4.9,-1.2 z"
     />
   </g>
   <path
      style="fill:#000000;fill-opacity:1;stroke:none"
      d="m 7.2,19.0 8.3,0.1 0.9,4.0 z"
   />
</svg>
